<svg width="596" height="237" viewBox="0 0 596 237" fill="none" xmlns="http://www.w3.org/2000/svg">
<path d="M65.9998 175.726C146 258.726 275 91.7262 72 99.7262C9.85124 102.175 96 -16.2737 145 5.72626C194 27.7263 44 88.7263 0 88.7263" stroke="#9054F7" stroke-width="4.5"/>
<path d="M104 165V132L132 147.125L104 165Z" stroke="#9054F7" stroke-width="8"/>
<path d="M104 165V132L132 147.125L104 165Z" stroke="#9054F7" stroke-opacity="0.2" stroke-width="8"/>
<path d="M117 116.726C163 132.726 168.034 162.714 117 181.726" stroke="#9054F7" stroke-width="4.5"/>
<path d="M99 82.7263C231 82.7263 232 240.726 85 207.726" stroke="#9054F7" stroke-width="4.5"/>
<mask id="path-5-outside-1_4_23" maskUnits="userSpaceOnUse" x="206" y="126" width="389" height="99" fill="black">
<rect fill="white" x="206" y="126" width="389" height="99"/>
<path d="M219.304 150.616V185.08C219.304 188.92 220.008 191.576 221.416 193.048C222.824 194.456 225.32 195.16 228.904 195.16H234.76V199H228.232C223.688 199 220.328 197.944 218.152 195.832C216.04 193.656 214.984 190.072 214.984 185.08V150.616H207.112V146.872H214.984V133.624H219.304V146.872H234.76V150.616H219.304ZM250.473 157.624C251.753 153.784 254.025 150.872 257.289 148.888C260.553 146.84 264.713 145.816 269.769 145.816V150.328H268.329C263.209 150.328 258.953 151.8 255.561 154.744C252.169 157.624 250.473 162.36 250.473 168.952V199H246.153V146.872H250.473V157.624ZM326.66 169.432C326.66 171.736 326.596 173.464 326.468 174.616H281.444C281.572 179.288 282.596 183.224 284.516 186.424C286.436 189.624 288.964 192.024 292.1 193.624C295.236 195.224 298.66 196.024 302.372 196.024C307.492 196.024 311.78 194.776 315.236 192.28C318.692 189.72 320.868 186.264 321.764 181.912H326.276C325.252 187.224 322.628 191.544 318.404 194.872C314.18 198.136 308.836 199.768 302.372 199.768C297.508 199.768 293.156 198.68 289.316 196.504C285.476 194.328 282.468 191.224 280.292 187.192C278.116 183.096 277.028 178.328 277.028 172.888C277.028 167.448 278.084 162.712 280.196 158.68C282.372 154.648 285.38 151.576 289.22 149.464C293.06 147.288 297.444 146.2 302.372 146.2C307.364 146.2 311.684 147.288 315.332 149.464C319.044 151.576 321.86 154.424 323.78 158.008C325.7 161.528 326.66 165.336 326.66 169.432ZM322.34 171.064C322.532 166.456 321.7 162.552 319.844 159.352C318.052 156.152 315.588 153.784 312.452 152.248C309.316 150.648 305.924 149.848 302.276 149.848C298.628 149.848 295.236 150.648 292.1 152.248C289.028 153.784 286.5 156.152 284.516 159.352C282.596 162.552 281.572 166.456 281.444 171.064H322.34ZM337.028 172.888C337.028 167.512 338.084 162.808 340.196 158.776C342.372 154.744 345.348 151.64 349.124 149.464C352.964 147.288 357.316 146.2 362.18 146.2C367.684 146.2 372.356 147.544 376.196 150.232C380.036 152.92 382.724 156.344 384.26 160.504V146.872H388.58V199H384.26V185.272C382.724 189.496 380.004 192.984 376.1 195.736C372.26 198.424 367.62 199.768 362.18 199.768C357.316 199.768 352.964 198.68 349.124 196.504C345.348 194.264 342.372 191.128 340.196 187.096C338.084 183 337.028 178.264 337.028 172.888ZM384.26 172.888C384.26 168.344 383.3 164.344 381.38 160.888C379.524 157.368 376.964 154.68 373.7 152.824C370.436 150.904 366.788 149.944 362.756 149.944C358.532 149.944 354.82 150.872 351.62 152.728C348.42 154.52 345.924 157.144 344.132 160.6C342.34 164.056 341.444 168.152 341.444 172.888C341.444 177.624 342.34 181.72 344.132 185.176C345.924 188.632 348.42 191.288 351.62 193.144C354.884 195 358.596 195.928 362.756 195.928C366.788 195.928 370.436 195 373.7 193.144C377.028 191.224 379.62 188.536 381.476 185.08C383.332 181.56 384.26 177.496 384.26 172.888ZM465.942 145.816C471.894 145.816 476.758 147.736 480.534 151.576C484.31 155.352 486.198 160.984 486.198 168.472V199H481.974V168.76C481.974 162.552 480.47 157.816 477.462 154.552C474.518 151.224 470.454 149.56 465.27 149.56C459.894 149.56 455.574 151.416 452.31 155.128C449.046 158.84 447.414 164.216 447.414 171.256V199H443.19V168.76C443.19 162.552 441.686 157.816 438.678 154.552C435.734 151.224 431.67 149.56 426.486 149.56C421.11 149.56 416.79 151.416 413.526 155.128C410.262 158.84 408.63 164.216 408.63 171.256V199H404.31V146.872H408.63V158.2C410.102 154.104 412.47 151.032 415.734 148.984C419.062 146.872 422.87 145.816 427.158 145.816C431.894 145.816 435.958 147.064 439.35 149.56C442.806 151.992 445.174 155.608 446.454 160.408C447.67 155.608 450.038 151.992 453.558 149.56C457.078 147.064 461.206 145.816 465.942 145.816ZM503.736 135.256C502.712 135.256 501.848 134.936 501.144 134.296C500.44 133.592 500.088 132.664 500.088 131.512C500.088 130.424 500.44 129.528 501.144 128.824C501.848 128.12 502.712 127.768 503.736 127.768C504.76 127.768 505.624 128.12 506.328 128.824C507.032 129.528 507.384 130.424 507.384 131.512C507.384 132.664 507.032 133.592 506.328 134.296C505.624 134.936 504.76 135.256 503.736 135.256ZM505.848 146.872V199H501.528V146.872H505.848ZM541.557 150.712H528.021V199H523.701V150.712H515.829V146.872H523.701V143.224C523.701 137.784 525.077 133.752 527.829 131.128C530.581 128.44 535.093 127.096 541.365 127.096V130.936C536.373 130.936 532.885 131.896 530.901 133.816C528.981 135.736 528.021 138.872 528.021 143.224V146.872H541.557V150.712ZM593.326 146.872L562.99 223.48H558.574L568.27 199L546.382 146.872H551.086L570.67 194.2L588.91 146.872H593.326Z"/>
</mask>
<path d="M219.304 150.616V185.08C219.304 188.92 220.008 191.576 221.416 193.048C222.824 194.456 225.32 195.16 228.904 195.16H234.76V199H228.232C223.688 199 220.328 197.944 218.152 195.832C216.04 193.656 214.984 190.072 214.984 185.08V150.616H207.112V146.872H214.984V133.624H219.304V146.872H234.76V150.616H219.304ZM250.473 157.624C251.753 153.784 254.025 150.872 257.289 148.888C260.553 146.84 264.713 145.816 269.769 145.816V150.328H268.329C263.209 150.328 258.953 151.8 255.561 154.744C252.169 157.624 250.473 162.36 250.473 168.952V199H246.153V146.872H250.473V157.624ZM326.66 169.432C326.66 171.736 326.596 173.464 326.468 174.616H281.444C281.572 179.288 282.596 183.224 284.516 186.424C286.436 189.624 288.964 192.024 292.1 193.624C295.236 195.224 298.66 196.024 302.372 196.024C307.492 196.024 311.78 194.776 315.236 192.28C318.692 189.72 320.868 186.264 321.764 181.912H326.276C325.252 187.224 322.628 191.544 318.404 194.872C314.18 198.136 308.836 199.768 302.372 199.768C297.508 199.768 293.156 198.68 289.316 196.504C285.476 194.328 282.468 191.224 280.292 187.192C278.116 183.096 277.028 178.328 277.028 172.888C277.028 167.448 278.084 162.712 280.196 158.68C282.372 154.648 285.38 151.576 289.22 149.464C293.06 147.288 297.444 146.2 302.372 146.2C307.364 146.2 311.684 147.288 315.332 149.464C319.044 151.576 321.86 154.424 323.78 158.008C325.7 161.528 326.66 165.336 326.66 169.432ZM322.34 171.064C322.532 166.456 321.7 162.552 319.844 159.352C318.052 156.152 315.588 153.784 312.452 152.248C309.316 150.648 305.924 149.848 302.276 149.848C298.628 149.848 295.236 150.648 292.1 152.248C289.028 153.784 286.5 156.152 284.516 159.352C282.596 162.552 281.572 166.456 281.444 171.064H322.34ZM337.028 172.888C337.028 167.512 338.084 162.808 340.196 158.776C342.372 154.744 345.348 151.64 349.124 149.464C352.964 147.288 357.316 146.2 362.18 146.2C367.684 146.2 372.356 147.544 376.196 150.232C380.036 152.92 382.724 156.344 384.26 160.504V146.872H388.58V199H384.26V185.272C382.724 189.496 380.004 192.984 376.1 195.736C372.26 198.424 367.62 199.768 362.18 199.768C357.316 199.768 352.964 198.68 349.124 196.504C345.348 194.264 342.372 191.128 340.196 187.096C338.084 183 337.028 178.264 337.028 172.888ZM384.26 172.888C384.26 168.344 383.3 164.344 381.38 160.888C379.524 157.368 376.964 154.68 373.7 152.824C370.436 150.904 366.788 149.944 362.756 149.944C358.532 149.944 354.82 150.872 351.62 152.728C348.42 154.52 345.924 157.144 344.132 160.6C342.34 164.056 341.444 168.152 341.444 172.888C341.444 177.624 342.34 181.72 344.132 185.176C345.924 188.632 348.42 191.288 351.62 193.144C354.884 195 358.596 195.928 362.756 195.928C366.788 195.928 370.436 195 373.7 193.144C377.028 191.224 379.62 188.536 381.476 185.08C383.332 181.56 384.26 177.496 384.26 172.888ZM465.942 145.816C471.894 145.816 476.758 147.736 480.534 151.576C484.31 155.352 486.198 160.984 486.198 168.472V199H481.974V168.76C481.974 162.552 480.47 157.816 477.462 154.552C474.518 151.224 470.454 149.56 465.27 149.56C459.894 149.56 455.574 151.416 452.31 155.128C449.046 158.84 447.414 164.216 447.414 171.256V199H443.19V168.76C443.19 162.552 441.686 157.816 438.678 154.552C435.734 151.224 431.67 149.56 426.486 149.56C421.11 149.56 416.79 151.416 413.526 155.128C410.262 158.84 408.63 164.216 408.63 171.256V199H404.31V146.872H408.63V158.2C410.102 154.104 412.47 151.032 415.734 148.984C419.062 146.872 422.87 145.816 427.158 145.816C431.894 145.816 435.958 147.064 439.35 149.56C442.806 151.992 445.174 155.608 446.454 160.408C447.67 155.608 450.038 151.992 453.558 149.56C457.078 147.064 461.206 145.816 465.942 145.816ZM503.736 135.256C502.712 135.256 501.848 134.936 501.144 134.296C500.44 133.592 500.088 132.664 500.088 131.512C500.088 130.424 500.44 129.528 501.144 128.824C501.848 128.12 502.712 127.768 503.736 127.768C504.76 127.768 505.624 128.12 506.328 128.824C507.032 129.528 507.384 130.424 507.384 131.512C507.384 132.664 507.032 133.592 506.328 134.296C505.624 134.936 504.76 135.256 503.736 135.256ZM505.848 146.872V199H501.528V146.872H505.848ZM541.557 150.712H528.021V199H523.701V150.712H515.829V146.872H523.701V143.224C523.701 137.784 525.077 133.752 527.829 131.128C530.581 128.44 535.093 127.096 541.365 127.096V130.936C536.373 130.936 532.885 131.896 530.901 133.816C528.981 135.736 528.021 138.872 528.021 143.224V146.872H541.557V150.712ZM593.326 146.872L562.99 223.48H558.574L568.27 199L546.382 146.872H551.086L570.67 194.2L588.91 146.872H593.326Z" fill="#9054F7"/>
<path d="M219.304 150.616V149.616H218.304V150.616H219.304ZM221.416 193.048L220.693 193.739L220.701 193.747L220.709 193.755L221.416 193.048ZM234.76 195.16H235.76V194.16H234.76V195.16ZM234.76 199V200H235.76V199H234.76ZM218.152 195.832L217.434 196.528L217.445 196.539L217.456 196.55L218.152 195.832ZM214.984 150.616H215.984V149.616H214.984V150.616ZM207.112 150.616H206.112V151.616H207.112V150.616ZM207.112 146.872V145.872H206.112V146.872H207.112ZM214.984 146.872V147.872H215.984V146.872H214.984ZM214.984 133.624V132.624H213.984V133.624H214.984ZM219.304 133.624H220.304V132.624H219.304V133.624ZM219.304 146.872H218.304V147.872H219.304V146.872ZM234.76 146.872H235.76V145.872H234.76V146.872ZM234.76 150.616V151.616H235.76V150.616H234.76ZM218.304 150.616V185.08H220.304V150.616H218.304ZM218.304 185.08C218.304 188.975 219.005 191.974 220.693 193.739L222.139 192.357C221.011 191.178 220.304 188.865 220.304 185.08H218.304ZM220.709 193.755C222.407 195.453 225.249 196.16 228.904 196.16V194.16C225.391 194.16 223.241 193.459 222.123 192.341L220.709 193.755ZM228.904 196.16H234.76V194.16H228.904V196.16ZM233.76 195.16V199H235.76V195.16H233.76ZM234.76 198H228.232V200H234.76V198ZM228.232 198C223.82 198 220.763 196.973 218.848 195.114L217.456 196.55C219.893 198.915 223.556 200 228.232 200V198ZM218.87 195.136C217.025 193.235 215.984 189.971 215.984 185.08H213.984C213.984 190.173 215.055 194.077 217.434 196.528L218.87 195.136ZM215.984 185.08V150.616H213.984V185.08H215.984ZM214.984 149.616H207.112V151.616H214.984V149.616ZM208.112 150.616V146.872H206.112V150.616H208.112ZM207.112 147.872H214.984V145.872H207.112V147.872ZM215.984 146.872V133.624H213.984V146.872H215.984ZM214.984 134.624H219.304V132.624H214.984V134.624ZM218.304 133.624V146.872H220.304V133.624H218.304ZM219.304 147.872H234.76V145.872H219.304V147.872ZM233.76 146.872V150.616H235.76V146.872H233.76ZM234.76 149.616H219.304V151.616H234.76V149.616ZM250.473 157.624H249.473L251.422 157.94L250.473 157.624ZM257.289 148.888L257.809 149.743L257.815 149.739L257.821 149.735L257.289 148.888ZM269.769 145.816H270.769V144.816H269.769V145.816ZM269.769 150.328V151.328H270.769V150.328H269.769ZM255.561 154.744L256.209 155.506L256.217 155.499L255.561 154.744ZM250.473 199V200H251.473V199H250.473ZM246.153 199H245.153V200H246.153V199ZM246.153 146.872V145.872H245.153V146.872H246.153ZM250.473 146.872H251.473V145.872H250.473V146.872ZM251.422 157.94C252.632 154.31 254.76 151.596 257.809 149.743L256.77 148.033C253.291 150.148 250.875 153.258 249.525 157.308L251.422 157.94ZM257.821 149.735C260.883 147.814 264.844 146.816 269.769 146.816V144.816C264.583 144.816 260.224 145.866 256.758 148.041L257.821 149.735ZM268.769 145.816V150.328H270.769V145.816H268.769ZM269.769 149.328H268.329V151.328H269.769V149.328ZM268.329 149.328C263.004 149.328 258.505 150.865 254.906 153.989L256.217 155.499C259.401 152.735 263.414 151.328 268.329 151.328V149.328ZM254.914 153.982C251.208 157.129 249.473 162.211 249.473 168.952H251.473C251.473 162.509 253.131 158.119 256.208 155.506L254.914 153.982ZM249.473 168.952V199H251.473V168.952H249.473ZM250.473 198H246.153V200H250.473V198ZM247.153 199V146.872H245.153V199H247.153ZM246.153 147.872H250.473V145.872H246.153V147.872ZM249.473 146.872V157.624H251.473V146.872H249.473ZM326.468 174.616V175.616H327.363L327.462 174.726L326.468 174.616ZM281.444 174.616V173.616H280.416L280.444 174.643L281.444 174.616ZM284.516 186.424L285.373 185.91L284.516 186.424ZM292.1 193.624L292.554 192.733L292.554 192.733L292.1 193.624ZM315.236 192.28L315.821 193.091L315.831 193.084L315.236 192.28ZM321.764 181.912V180.912H320.949L320.784 181.71L321.764 181.912ZM326.276 181.912L327.258 182.101L327.487 180.912H326.276V181.912ZM318.404 194.872L319.015 195.663L319.023 195.657L318.404 194.872ZM289.316 196.504L288.823 197.374L289.316 196.504ZM280.292 187.192L279.409 187.661L279.412 187.667L280.292 187.192ZM280.196 158.68L279.316 158.205L279.31 158.216L280.196 158.68ZM289.22 149.464L289.702 150.34L289.713 150.334L289.22 149.464ZM315.332 149.464L314.819 150.323L314.828 150.328L314.837 150.333L315.332 149.464ZM323.78 158.008L322.898 158.48L322.902 158.487L323.78 158.008ZM322.34 171.064V172.064H323.299L323.339 171.106L322.34 171.064ZM319.844 159.352L318.971 159.841L318.975 159.847L318.979 159.854L319.844 159.352ZM312.452 152.248L311.997 153.139L312.005 153.142L312.012 153.146L312.452 152.248ZM292.1 152.248L292.547 153.142L292.554 153.139L292.1 152.248ZM284.516 159.352L283.666 158.825L283.662 158.831L283.658 158.838L284.516 159.352ZM281.444 171.064L280.444 171.036L280.416 172.064H281.444V171.064ZM325.66 169.432C325.66 171.728 325.596 173.411 325.474 174.506L327.462 174.726C327.596 173.517 327.66 171.744 327.66 169.432H325.66ZM326.468 173.616H281.444V175.616H326.468V173.616ZM280.444 174.643C280.576 179.445 281.63 183.558 283.658 186.938L285.373 185.91C283.561 182.89 282.568 179.131 282.443 174.589L280.444 174.643ZM283.658 186.938C285.669 190.289 288.332 192.824 291.645 194.515L292.554 192.733C289.595 191.224 287.203 188.959 285.373 185.91L283.658 186.938ZM291.645 194.515C294.93 196.19 298.511 197.024 302.372 197.024V195.024C298.809 195.024 295.542 194.258 292.554 192.733L291.645 194.515ZM302.372 197.024C307.659 197.024 312.163 195.733 315.821 193.091L314.65 191.469C311.397 193.819 307.325 195.024 302.372 195.024V197.024ZM315.831 193.084C319.492 190.372 321.799 186.698 322.743 182.114L320.784 181.71C319.936 185.83 317.892 189.068 314.641 191.476L315.831 193.084ZM321.764 182.912H326.276V180.912H321.764V182.912ZM325.294 181.723C324.315 186.8 321.819 190.908 317.785 194.087L319.023 195.657C323.437 192.18 326.189 187.648 327.258 182.101L325.294 181.723ZM317.792 194.081C313.778 197.183 308.662 198.768 302.372 198.768V200.768C309.009 200.768 314.582 199.089 319.015 195.663L317.792 194.081ZM302.372 198.768C297.662 198.768 293.483 197.716 289.809 195.634L288.823 197.374C292.828 199.644 297.353 200.768 302.372 200.768V198.768ZM289.809 195.634C286.139 193.554 283.262 190.59 281.172 186.717L279.412 187.667C281.673 191.858 284.813 195.102 288.823 197.374L289.809 195.634ZM281.175 186.723C279.088 182.794 278.028 178.193 278.028 172.888H276.028C276.028 178.463 277.144 183.398 279.409 187.661L281.175 186.723ZM278.028 172.888C278.028 167.578 279.058 163.007 281.082 159.144L279.31 158.216C277.11 162.417 276.028 167.318 276.028 172.888H278.028ZM281.076 159.155C283.165 155.284 286.038 152.355 289.702 150.34L288.738 148.588C284.721 150.797 281.579 154.012 279.316 158.205L281.076 159.155ZM289.713 150.334C293.385 148.253 297.596 147.2 302.372 147.2V145.2C297.292 145.2 292.734 146.323 288.727 148.594L289.713 150.334ZM302.372 147.2C307.215 147.2 311.352 148.254 314.819 150.323L315.844 148.605C312.016 146.322 307.512 145.2 302.372 145.2V147.2ZM314.837 150.333C318.394 152.357 321.072 155.071 322.898 158.48L324.661 157.536C322.648 153.777 319.693 150.795 315.826 148.595L314.837 150.333ZM322.902 158.487C324.74 161.857 325.66 165.5 325.66 169.432H327.66C327.66 165.172 326.66 161.199 324.658 157.529L322.902 158.487ZM323.339 171.106C323.537 166.354 322.681 162.251 320.709 158.85L318.979 159.854C320.718 162.853 321.527 166.558 321.341 171.022L323.339 171.106ZM320.716 158.863C318.83 155.496 316.22 152.98 312.892 151.35L312.012 153.146C314.956 154.588 317.273 156.808 318.971 159.841L320.716 158.863ZM312.906 151.357C309.624 149.683 306.076 148.848 302.276 148.848V150.848C305.772 150.848 309.007 151.613 311.997 153.139L312.906 151.357ZM302.276 148.848C298.476 148.848 294.927 149.683 291.645 151.357L292.554 153.139C295.544 151.613 298.78 150.848 302.276 150.848V148.848ZM291.653 151.354C288.399 152.98 285.738 155.483 283.666 158.825L285.366 159.879C287.262 156.821 289.656 154.588 292.547 153.142L291.653 151.354ZM283.658 158.838C281.631 162.216 280.576 166.296 280.444 171.036L282.443 171.092C282.568 166.616 283.56 162.888 285.373 159.866L283.658 158.838ZM281.444 172.064H322.34V170.064H281.444V172.064ZM340.196 158.776L339.316 158.301L339.31 158.312L340.196 158.776ZM349.124 149.464L348.631 148.594L348.624 148.598L349.124 149.464ZM384.26 160.504L383.322 160.85L385.26 160.504H384.26ZM384.26 146.872V145.872H383.26V146.872H384.26ZM388.58 146.872H389.58V145.872H388.58V146.872ZM388.58 199V200H389.58V199H388.58ZM384.26 199H383.26V200H384.26V199ZM384.26 185.272H385.26L383.32 184.93L384.26 185.272ZM376.1 195.736L376.673 196.555L376.676 196.553L376.1 195.736ZM349.124 196.504L348.614 197.364L348.622 197.369L348.631 197.374L349.124 196.504ZM340.196 187.096L339.307 187.554L339.311 187.563L339.316 187.571L340.196 187.096ZM381.38 160.888L380.495 161.354L380.5 161.364L380.506 161.374L381.38 160.888ZM373.7 152.824L373.193 153.686L373.199 153.69L373.205 153.693L373.7 152.824ZM351.62 152.728L352.108 153.601L352.115 153.597L352.121 153.593L351.62 152.728ZM344.132 160.6L345.02 161.06L345.02 161.06L344.132 160.6ZM344.132 185.176L345.02 184.716L345.02 184.716L344.132 185.176ZM351.62 193.144L351.118 194.009L351.125 194.013L351.62 193.144ZM373.7 193.144L374.194 194.013L374.199 194.01L373.7 193.144ZM381.476 185.08L382.357 185.553L382.36 185.546L381.476 185.08ZM338.028 172.888C338.028 167.644 339.057 163.105 341.082 159.24L339.31 158.312C337.11 162.511 336.028 167.38 336.028 172.888H338.028ZM341.076 159.251C343.168 155.373 346.016 152.409 349.623 150.33L348.624 148.598C344.679 150.871 341.575 154.115 339.316 158.301L341.076 159.251ZM349.617 150.334C353.291 148.252 357.47 147.2 362.18 147.2V145.2C357.161 145.2 352.636 146.324 348.631 148.594L349.617 150.334ZM362.18 147.2C367.515 147.2 371.978 148.5 375.622 151.051L376.769 149.413C372.733 146.588 367.852 145.2 362.18 145.2V147.2ZM375.622 151.051C379.305 153.629 381.86 156.893 383.322 160.85L385.198 160.158C383.587 155.795 380.766 152.211 376.769 149.413L375.622 151.051ZM385.26 160.504V146.872H383.26V160.504H385.26ZM384.26 147.872H388.58V145.872H384.26V147.872ZM387.58 146.872V199H389.58V146.872H387.58ZM388.58 198H384.26V200H388.58V198ZM385.26 199V185.272H383.26V199H385.26ZM383.32 184.93C381.858 188.95 379.272 192.277 375.524 194.919L376.676 196.553C380.736 193.691 383.589 190.042 385.2 185.614L383.32 184.93ZM375.526 194.917C371.88 197.469 367.449 198.768 362.18 198.768V200.768C367.791 200.768 372.639 199.379 376.673 196.555L375.526 194.917ZM362.18 198.768C357.47 198.768 353.291 197.716 349.617 195.634L348.631 197.374C352.636 199.644 357.161 200.768 362.18 200.768V198.768ZM349.634 195.644C346.021 193.501 343.17 190.501 341.076 186.621L339.316 187.571C341.574 191.755 344.675 195.027 348.614 197.364L349.634 195.644ZM341.085 186.638C339.057 182.705 338.028 178.131 338.028 172.888H336.028C336.028 178.397 337.111 183.295 339.307 187.554L341.085 186.638ZM385.26 172.888C385.26 168.2 384.268 164.028 382.254 160.402L380.506 161.374C382.331 164.66 383.26 168.488 383.26 172.888H385.26ZM382.264 160.422C380.325 156.743 377.634 153.911 374.194 151.955L373.205 153.693C376.293 155.449 378.723 157.993 380.495 161.354L382.264 160.422ZM374.207 151.962C370.779 149.946 366.954 148.944 362.756 148.944V150.944C366.621 150.944 370.092 151.862 373.193 153.686L374.207 151.962ZM362.756 148.944C358.381 148.944 354.491 149.907 351.118 151.863L352.121 153.593C355.148 151.837 358.683 150.944 362.756 150.944V148.944ZM351.131 151.855C347.75 153.749 345.12 156.521 343.244 160.14L345.02 161.06C346.727 157.767 349.089 155.291 352.108 153.601L351.131 151.855ZM343.244 160.14C341.364 163.766 340.444 168.026 340.444 172.888H342.444C342.444 168.278 343.316 164.346 345.02 161.06L343.244 160.14ZM340.444 172.888C340.444 177.75 341.364 182.01 343.244 185.636L345.02 184.716C343.316 181.43 342.444 177.498 342.444 172.888H340.444ZM343.244 185.636C345.119 189.252 347.745 192.052 351.118 194.009L352.121 192.279C349.095 190.524 346.729 188.012 345.02 184.716L343.244 185.636ZM351.125 194.013C354.556 195.964 358.442 196.928 362.756 196.928V194.928C358.75 194.928 355.212 194.036 352.114 192.275L351.125 194.013ZM362.756 196.928C366.948 196.928 370.768 195.961 374.194 194.013L373.205 192.275C370.103 194.039 366.628 194.928 362.756 194.928V196.928ZM374.199 194.01C377.692 191.995 380.415 189.169 382.357 185.553L380.595 184.607C378.825 187.903 376.363 190.453 373.2 192.278L374.199 194.01ZM382.36 185.546C384.303 181.861 385.26 177.633 385.26 172.888H383.26C383.26 177.359 382.36 181.259 380.591 184.614L382.36 185.546ZM480.534 151.576L479.82 152.277L479.826 152.283L480.534 151.576ZM486.198 199V200H487.198V199H486.198ZM481.974 199H480.974V200H481.974V199ZM477.462 154.552L476.713 155.215L476.719 155.222L476.726 155.23L477.462 154.552ZM452.31 155.128L453.06 155.788L453.06 155.788L452.31 155.128ZM447.414 199V200H448.414V199H447.414ZM443.19 199H442.19V200H443.19V199ZM438.678 154.552L437.929 155.215L437.935 155.222L437.942 155.23L438.678 154.552ZM413.526 155.128L414.276 155.788L414.276 155.788L413.526 155.128ZM408.63 199V200H409.63V199H408.63ZM404.31 199H403.31V200H404.31V199ZM404.31 146.872V145.872H403.31V146.872H404.31ZM408.63 146.872H409.63V145.872H408.63V146.872ZM408.63 158.2H407.63L409.571 158.538L408.63 158.2ZM415.734 148.984L416.265 149.831L416.269 149.828L415.734 148.984ZM439.35 149.56L438.757 150.365L438.765 150.372L438.774 150.378L439.35 149.56ZM446.454 160.408L445.487 160.666L446.478 164.382L447.423 160.654L446.454 160.408ZM453.558 149.56L454.126 150.383L454.136 150.376L453.558 149.56ZM465.942 146.816C471.656 146.816 476.253 148.649 479.82 152.277L481.247 150.875C477.262 146.823 472.131 144.816 465.942 144.816V146.816ZM479.826 152.283C483.35 155.807 485.198 161.141 485.198 168.472H487.198C487.198 160.827 485.269 154.897 481.241 150.869L479.826 152.283ZM485.198 168.472V199H487.198V168.472H485.198ZM486.198 198H481.974V200H486.198V198ZM482.974 199V168.76H480.974V199H482.974ZM482.974 168.76C482.974 162.401 481.433 157.385 478.197 153.874L476.726 155.23C479.506 158.247 480.974 162.703 480.974 168.76H482.974ZM478.211 153.889C475.044 150.31 470.687 148.56 465.27 148.56V150.56C470.22 150.56 473.991 152.138 476.713 155.215L478.211 153.889ZM465.27 148.56C459.634 148.56 455.03 150.519 451.559 154.468L453.06 155.788C456.117 152.313 460.153 150.56 465.27 150.56V148.56ZM451.559 154.468C448.077 158.427 446.414 164.075 446.414 171.256H448.414C448.414 164.357 450.014 159.253 453.06 155.788L451.559 154.468ZM446.414 171.256V199H448.414V171.256H446.414ZM447.414 198H443.19V200H447.414V198ZM444.19 199V168.76H442.19V199H444.19ZM444.19 168.76C444.19 162.401 442.649 157.385 439.413 153.874L437.942 155.23C440.722 158.247 442.19 162.703 442.19 168.76H444.19ZM439.426 153.889C436.26 150.31 431.903 148.56 426.486 148.56V150.56C431.436 150.56 435.207 152.138 437.929 155.215L439.426 153.889ZM426.486 148.56C420.85 148.56 416.246 150.519 412.775 154.468L414.276 155.788C417.333 152.313 421.369 150.56 426.486 150.56V148.56ZM412.775 154.468C409.293 158.427 407.63 164.075 407.63 171.256H409.63C409.63 164.357 411.23 159.253 414.276 155.788L412.775 154.468ZM407.63 171.256V199H409.63V171.256H407.63ZM408.63 198H404.31V200H408.63V198ZM405.31 199V146.872H403.31V199H405.31ZM404.31 147.872H408.63V145.872H404.31V147.872ZM407.63 146.872V158.2H409.63V146.872H407.63ZM409.571 158.538C410.977 154.624 413.215 151.745 416.265 149.831L415.202 148.137C411.724 150.319 409.226 153.584 407.688 157.862L409.571 158.538ZM416.269 149.828C419.423 147.827 423.042 146.816 427.158 146.816V144.816C422.697 144.816 418.7 145.917 415.198 148.14L416.269 149.828ZM427.158 146.816C431.708 146.816 435.558 148.011 438.757 150.365L439.942 148.755C436.357 146.117 432.079 144.816 427.158 144.816V146.816ZM438.774 150.378C442.005 152.652 444.257 156.051 445.487 160.666L447.42 160.15C446.09 155.165 443.606 151.332 439.925 148.742L438.774 150.378ZM447.423 160.654C448.589 156.049 450.836 152.656 454.126 150.383L452.989 148.737C449.239 151.328 446.75 155.167 445.484 160.162L447.423 160.654ZM454.136 150.376C457.47 148.011 461.392 146.816 465.942 146.816V144.816C461.019 144.816 456.685 146.117 452.979 148.744L454.136 150.376ZM501.144 134.296L500.437 135.003L500.454 135.02L500.472 135.036L501.144 134.296ZM501.144 128.824L501.851 129.531L501.851 129.531L501.144 128.824ZM506.328 128.824L505.621 129.531L505.621 129.531L506.328 128.824ZM506.328 134.296L507.001 135.036L507.019 135.02L507.035 135.003L506.328 134.296ZM505.848 146.872H506.848V145.872H505.848V146.872ZM505.848 199V200H506.848V199H505.848ZM501.528 199H500.528V200H501.528V199ZM501.528 146.872V145.872H500.528V146.872H501.528ZM503.736 134.256C502.94 134.256 502.322 134.015 501.817 133.556L500.472 135.036C501.374 135.857 502.484 136.256 503.736 136.256V134.256ZM501.851 133.589C501.365 133.102 501.088 132.444 501.088 131.512H499.088C499.088 132.884 499.516 134.082 500.437 135.003L501.851 133.589ZM501.088 131.512C501.088 130.662 501.353 130.029 501.851 129.531L500.437 128.117C499.527 129.027 499.088 130.186 499.088 131.512H501.088ZM501.851 129.531C502.362 129.021 502.969 128.768 503.736 128.768V126.768C502.455 126.768 501.335 127.219 500.437 128.117L501.851 129.531ZM503.736 128.768C504.503 128.768 505.111 129.021 505.621 129.531L507.035 128.117C506.138 127.219 505.017 126.768 503.736 126.768V128.768ZM505.621 129.531C506.119 130.029 506.384 130.662 506.384 131.512H508.384C508.384 130.186 507.945 129.027 507.035 128.117L505.621 129.531ZM506.384 131.512C506.384 132.444 506.108 133.102 505.621 133.589L507.035 135.003C507.957 134.082 508.384 132.884 508.384 131.512H506.384ZM505.656 133.556C505.15 134.015 504.532 134.256 503.736 134.256V136.256C504.988 136.256 506.098 135.857 507.001 135.036L505.656 133.556ZM504.848 146.872V199H506.848V146.872H504.848ZM505.848 198H501.528V200H505.848V198ZM502.528 199V146.872H500.528V199H502.528ZM501.528 147.872H505.848V145.872H501.528V147.872ZM541.557 150.712V151.712H542.557V150.712H541.557ZM528.021 150.712V149.712H527.021V150.712H528.021ZM528.021 199V200H529.021V199H528.021ZM523.701 199H522.701V200H523.701V199ZM523.701 150.712H524.701V149.712H523.701V150.712ZM515.829 150.712H514.829V151.712H515.829V150.712ZM515.829 146.872V145.872H514.829V146.872H515.829ZM523.701 146.872V147.872H524.701V146.872H523.701ZM527.829 131.128L528.519 131.852L528.527 131.843L527.829 131.128ZM541.365 127.096H542.365V126.096H541.365V127.096ZM541.365 130.936V131.936H542.365V130.936H541.365ZM530.901 133.816L530.205 133.097L530.199 133.103L530.193 133.109L530.901 133.816ZM528.021 146.872H527.021V147.872H528.021V146.872ZM541.557 146.872H542.557V145.872H541.557V146.872ZM541.557 149.712H528.021V151.712H541.557V149.712ZM527.021 150.712V199H529.021V150.712H527.021ZM528.021 198H523.701V200H528.021V198ZM524.701 199V150.712H522.701V199H524.701ZM523.701 149.712H515.829V151.712H523.701V149.712ZM516.829 150.712V146.872H514.829V150.712H516.829ZM515.829 147.872H523.701V145.872H515.829V147.872ZM524.701 146.872V143.224H522.701V146.872H524.701ZM524.701 143.224C524.701 137.938 526.037 134.218 528.519 131.852L527.138 130.404C524.116 133.286 522.701 137.63 522.701 143.224H524.701ZM528.527 131.843C531.004 129.424 535.197 128.096 541.365 128.096V126.096C534.988 126.096 530.157 127.456 527.13 130.413L528.527 131.843ZM540.365 127.096V130.936H542.365V127.096H540.365ZM541.365 129.936C536.303 129.936 532.478 130.898 530.205 133.097L531.596 134.535C533.291 132.894 536.442 131.936 541.365 131.936V129.936ZM530.193 133.109C528 135.303 527.021 138.761 527.021 143.224H529.021C529.021 138.983 529.961 136.169 531.608 134.523L530.193 133.109ZM527.021 143.224V146.872H529.021V143.224H527.021ZM528.021 147.872H541.557V145.872H528.021V147.872ZM540.557 146.872V150.712H542.557V146.872H540.557ZM593.326 146.872L594.256 147.24L594.798 145.872H593.326V146.872ZM562.99 223.48V224.48H563.67L563.92 223.848L562.99 223.48ZM558.574 223.48L557.644 223.112L557.102 224.48H558.574V223.48ZM568.27 199L569.2 199.368L569.35 198.989L569.192 198.613L568.27 199ZM546.382 146.872V145.872H544.878L545.46 147.259L546.382 146.872ZM551.086 146.872L552.01 146.49L551.754 145.872H551.086V146.872ZM570.67 194.2L569.746 194.582L570.703 196.895L571.603 194.56L570.67 194.2ZM588.91 146.872V145.872H588.224L587.977 146.512L588.91 146.872ZM592.396 146.504L562.06 223.112L563.92 223.848L594.256 147.24L592.396 146.504ZM562.99 222.48H558.574V224.48H562.99V222.48ZM559.504 223.848L569.2 199.368L567.34 198.632L557.644 223.112L559.504 223.848ZM569.192 198.613L547.304 146.485L545.46 147.259L567.348 199.387L569.192 198.613ZM546.382 147.872H551.086V145.872H546.382V147.872ZM550.162 147.254L569.746 194.582L571.594 193.818L552.01 146.49L550.162 147.254ZM571.603 194.56L589.843 147.232L587.977 146.512L569.737 193.84L571.603 194.56ZM588.91 147.872H593.326V145.872H588.91V147.872Z" fill="#9054F7" mask="url(#path-5-outside-1_4_23)"/>
</svg>
